<?xml version="1.0" encoding="UTF-8" standalone="no"?>
<!-- Created with Inkscape (http://www.inkscape.org/) -->

<svg
   width="512"
   height="512"
   viewBox="0 0 512 512"
   version="1.1"
   id="svg1"
   inkscape:version="1.4.2 (ebf0e940d0, 2025-05-08)"
   sodipodi:docname="ACOMS_LOGO_BW.svg"
   inkscape:export-filename="ACOMS_LOGO.png"
   inkscape:export-xdpi="96"
   inkscape:export-ydpi="96"
   xmlns:inkscape="http://www.inkscape.org/namespaces/inkscape"
   xmlns:sodipodi="http://sodipodi.sourceforge.net/DTD/sodipodi-0.dtd"
   xmlns="http://www.w3.org/2000/svg"
   xmlns:svg="http://www.w3.org/2000/svg">
  <sodipodi:namedview
     id="namedview1"
     pagecolor="#ffffff"
     bordercolor="#000000"
     borderopacity="0.25"
     inkscape:showpageshadow="2"
     inkscape:pageopacity="0.0"
     inkscape:pagecheckerboard="0"
     inkscape:deskcolor="#d1d1d1"
     inkscape:document-units="px"
     inkscape:zoom="1"
     inkscape:cx="358.5"
     inkscape:cy="257.5"
     inkscape:window-width="1920"
     inkscape:window-height="958"
     inkscape:window-x="0"
     inkscape:window-y="0"
     inkscape:window-maximized="1"
     inkscape:current-layer="svg1"
     showguides="true">
    <sodipodi:guide
       position="0.45247657,510.8996"
       orientation="0,-1"
       id="guide1"
       inkscape:locked="false" />
  </sodipodi:namedview>
  <defs
     id="defs1">
    <inkscape:path-effect
       effect="fillet_chamfer"
       id="path-effect2"
       is_visible="true"
       lpeversion="1"
       nodesatellites_param="F,0,0,1,0,0,0,1 @ F,0,0,1,0,0,0,1 @ F,0,0,1,0,0,0,1 @ F,0,0,1,0,0,0,1 @ F,0,0,1,0,0,0,1 @ F,0,0,1,0,0,0,1 @ F,0,0,1,0,0,0,1 @ F,0,0,1,0,0,0,1"
       radius="0"
       unit="px"
       method="auto"
       mode="F"
       chamfer_steps="1"
       flexible="false"
       use_knot_distance="true"
       apply_no_radius="true"
       apply_with_radius="true"
       only_selected="false"
       hide_knots="false" />
  </defs>
  <path
     id="rect1"
     style="fill:#000000"
     d="M 120 0 C 53.52 0 7.427392e-16 53.52 0 120 L 0 392 C 0 458.48 53.52 512 120 512 L 392 512 C 458.48 512 512 458.48 512 392 L 512 120 C 512 53.52 458.48 7.427392e-16 392 0 L 120 0 z M 65.533203 205.86719 L 71 205.86719 L 87.667969 289.73242 C 89.134632 296.79907 90.334134 297.86719 97.800781 297.86719 L 101.13281 297.86719 L 100.33398 304.13281 L 60.333984 304.13281 L 61 297.86719 L 63.134766 297.86719 C 70.734746 297.86719 72.734375 296.93254 72.734375 293.19922 C 72.734375 292.13255 72.601171 290.40078 72.201172 288.80078 L 69.132812 272.40039 L 35.134766 272.40039 L 27.800781 285.19922 C 26.200785 287.99921 25.400391 290.53321 25.400391 292.5332 C 25.400391 296.53319 27.666294 297.86719 34.599609 297.86719 L 37.800781 297.86719 L 37 304.13281 L 1.1347656 304.13281 L 1.8007812 297.86719 C 9.0007628 297.86719 14.466555 293.46573 21.533203 281.73242 L 65.533203 205.86719 z M 160.20117 205.86719 C 170.33448 205.86719 176.99989 208.93322 183.5332 216.5332 L 191.5332 208.80078 L 196.33398 208.80078 L 188.86719 246.13281 L 183.40039 246.13281 C 183.00039 235.86617 182.06692 229.99973 179.93359 225.06641 C 176.3336 216.1331 170.06756 211.59961 161.26758 211.59961 C 151.93427 211.59961 143.13332 216.93375 137 226.40039 C 128.60002 239.20036 123.26758 256.79952 123.26758 272.13281 C 123.26758 289.33277 132.46645 299.59961 148.06641 299.59961 C 158.06638 299.59961 166.20106 295.73292 172.73438 287.59961 C 175.13437 284.66628 177.00066 281.46704 180.33398 274.40039 L 185.80078 276.80078 C 182.20079 285.06743 179.26614 289.99949 175.13281 294.13281 C 167.53283 302.13279 157.53408 306.13281 145.80078 306.13281 C 122.06751 306.13281 106.59961 290.66739 106.59961 266.80078 C 106.59961 252.00082 111.66708 238.13278 121.40039 226.13281 C 132.20036 212.79951 145.53454 205.86719 160.20117 205.86719 z M 257.93359 205.86719 C 268.0669 205.86719 277.53348 209.60041 284.4668 216.40039 C 291.53345 223.46704 295 232.53284 295 244.13281 C 295 261.19944 287.93265 277.99899 275.66602 290.26562 C 264.99938 300.79893 252.59957 306.13281 238.59961 306.13281 C 216.333 306.13281 202.33398 291.20007 202.33398 267.4668 C 202.33398 251.20017 208.46709 235.60049 219.40039 223.86719 C 230.73369 211.86722 243.53363 205.86719 257.93359 205.86719 z M 474.33203 205.86719 C 484.19867 205.86719 491.66629 208.93439 498.59961 215.73438 L 505.79883 208.80078 L 510.86523 208.80078 L 503.66602 243.59961 L 498.06641 242.66602 C 498.19974 241.46602 498.19922 240.4 498.19922 240 C 498.19922 222.40004 489.53226 211.59961 475.26562 211.59961 C 463.39899 211.59961 454.4668 219.06643 454.4668 229.06641 C 454.4668 235.86639 459.13271 240.80027 469.66602 244.93359 L 481 249.4668 C 496.86663 255.73345 502.4668 262.53298 502.4668 275.59961 C 502.4668 293.19956 487.39956 306.13281 466.59961 306.13281 C 455.79964 306.13281 446.59946 302.66574 439.13281 295.73242 L 431.26562 304.13281 L 426.59961 304.13281 L 433.93359 266.13281 L 439.26562 267.06641 C 439.13229 268.53307 439.13281 270.26745 439.13281 270.80078 C 439.13281 279.86742 441.2659 286.2672 446.19922 291.86719 C 451.39921 297.73384 457.80015 300.40039 466.4668 300.40039 C 480.33343 300.40039 489.66602 292.66729 489.66602 281.33398 C 489.66602 276.40066 487.66548 272.53241 483.79883 269.73242 C 482.19883 268.66576 480.86704 268.00025 473.40039 264.93359 L 461.93359 260.13281 C 455.00028 257.19949 451.26627 254.93333 448.59961 252 C 444.59962 247.60001 442.33203 241.73241 442.33203 235.73242 C 442.33203 218.93246 456.33208 205.86719 474.33203 205.86719 z M 316.86719 207.86719 L 349.13281 207.86719 L 356.19922 279.86719 L 401.66602 207.86719 L 430.4668 207.86719 L 429.79883 214.13281 L 429.26562 214.13281 C 422.19898 214.26615 419.39974 214.66667 418.06641 216 C 416.86641 217.2 416.86666 217.20093 415 224.26758 L 398.06641 287.73242 C 397.26641 290.79908 396.73242 293.19896 396.73242 294.26562 C 396.73242 297.19895 398.59898 297.86719 407.26562 297.86719 L 410.73242 297.86719 L 409.93359 304.13281 L 367.66602 304.13281 L 368.33398 297.86719 L 368.86719 297.86719 C 375.93384 297.73385 378.73308 297.33333 380.06641 296 C 381.13307 294.8 381.26615 294.66574 383.13281 287.73242 L 400.73242 222 L 349.26562 304.13281 L 344.4668 304.13281 L 336.19922 223.86719 L 322.4668 275.19922 C 319.53347 287.06586 319.40039 287.59988 319.40039 290.5332 C 319.40039 295.59986 323.13231 297.86719 331.26562 297.86719 L 330.59961 304.13281 L 297.26758 304.13281 L 297.93359 297.86719 C 307.53357 297.60052 310.19897 294.1325 315.26562 275.19922 L 328.86719 224.26758 C 329.80052 221.06759 330.19922 218.80104 330.19922 217.73438 C 330.19922 214.80105 328.33266 214.13281 319.66602 214.13281 L 316.19922 214.13281 L 316.86719 207.86719 z M 258.33398 211.59961 C 249.13401 211.59961 241.40011 215.86695 234.4668 224.93359 C 225.80015 236.13357 218.06641 260.40043 218.06641 276.40039 C 218.06641 291.20035 226.06722 300.40039 238.86719 300.40039 C 249.26716 300.40039 259.00002 294.6669 265 284.93359 C 273.26665 271.60029 279.40039 251.7333 279.40039 238 C 279.40039 231.73335 277.40051 223.5996 274.86719 219.59961 C 272.06719 214.79962 265.2673 211.59961 258.33398 211.59961 z M 60.466797 227.86719 L 38.734375 266.13281 L 68.066406 266.13281 L 60.466797 227.86719 z " />
  <g
     inkscape:label="Layer 1"
     inkscape:groupmode="layer"
     id="layer1" />
</svg>
